<?xml version="1.0" encoding="utf-8"?>
<svg width="313" height="328" xmlns="http://www.w3.org/2000/svg">
  <path style="fill: rgb(61, 68, 81); stroke-width: 2px; stroke: rgb(255, 255, 255);" d="M163 16L163 174C175.946 170.263 188.326 160.513 200 153.85C222.732 140.873 245.292 127.597 268 114.579C278.837 108.366 289.522 100.946 301 96L301 94C289.522 89.0541 278.837 81.6344 268 75.4213C245.292 62.4028 222.731 49.1269 200 36.1505C188.326 29.4865 175.946 19.7366 163 16M272 172L217 172C217 187.806 212.734 201.999 203.561 215C197.597 223.452 189.772 230.492 181 235.934C173.821 240.389 165.335 244.096 157 245.689C104.214 255.78 56.5652 206.432 69.1304 154C71.2661 145.088 74.8932 137.467 80.206 130C86.8693 120.635 95.0931 112.872 105 107.015C116.213 100.385 129.023 97.0086 142 97L142 42C123.679 42.002 104.624 45.9883 88 53.7816C61.907 66.0143 38.8049 86.9953 25.8318 113C1.42639 161.921 11.5332 225.194 50.1698 263.83C62.1662 275.827 76.4784 285.041 92 291.719C107.569 298.418 123.131 301 140 301C159.642 301 177.856 298.16 196 290.138C216.643 281.011 233.998 266.003 247.37 248C263.282 226.579 272 198.502 272 172z"/>
</svg>